<svg width="48" height="32" viewBox="0 0 48 32" fill="none" xmlns="http://www.w3.org/2000/svg">
<path d="M33.1172 9.79199C35.4239 9.79214 37.599 11.9303 37.6123 15.8555C37.6123 20.1465 35.4631 22.0957 33.1035 22.0957C31.9437 22.0956 31.245 21.5951 30.7705 21.2432L30.7578 25.0742L27.4619 25.792V10.0078H30.3623L30.5332 10.8477C30.9946 10.4145 31.8254 9.79199 33.1172 9.79199ZM5 9.79102C6.0941 9.79102 7.17543 9.96736 8.26953 10.4141V13.5947C7.26773 13.0398 6.00177 12.7285 5 12.7285C4.3016 12.7286 3.87988 12.9321 3.87988 13.46C3.88026 14.9758 8.9016 14.2586 8.91504 18.292C8.91504 20.7149 7.03065 22.1092 4.28906 22.1094C3.15542 22.1094 1.91537 21.8793 0.689453 21.3379V18.1162C1.79673 18.7389 3.19496 19.1992 4.28906 19.1992C5.027 19.1991 5.55371 18.9956 5.55371 18.373C5.55274 16.7628 0.544922 17.3578 0.544922 13.6221C0.545001 11.2263 2.32436 9.79116 5 9.79102ZM12.7783 10.0215H15.2822V12.9043H12.7783V17.71C12.7783 19.7129 14.8597 19.0912 15.2822 18.915V21.6631C14.8471 21.9067 14.0562 22.1094 12.9756 22.1094C11.0248 22.1093 9.56168 20.6341 9.56152 18.6309L9.57422 7.78809L12.791 7.08398L12.7783 10.0215ZM43.2402 9.79199C46.3643 9.79199 47.999 12.5259 47.999 15.9912C47.999 16.3161 47.9727 17.0203 47.9727 17.1963H41.5273C41.6725 18.7932 42.8055 19.2539 44.084 19.2539C45.3889 19.2539 46.4171 18.969 47.3135 18.5088V21.2158C46.4171 21.7302 45.2307 22.0957 43.6621 22.0957C40.4459 22.0956 38.2051 20.0382 38.2051 15.9639C38.2052 12.5258 40.1032 9.79218 43.2402 9.79199ZM26.2363 21.8662H22.9277V10.0215H26.2363V21.8662ZM19.3818 11.0234C20.1595 9.56165 21.701 9.85904 22.123 10.0215V13.1348C21.7142 12.9859 20.3968 12.7967 19.6191 13.8389V21.8652H16.3232V10.0215H19.1709L19.3818 11.0234ZM32.3262 12.7969C31.5749 12.7969 31.1005 13.0674 30.7578 13.46L30.7705 18.4814C31.0869 18.8334 31.5484 19.1182 32.3262 19.1182C33.5388 19.118 34.3564 17.764 34.3564 15.9502C34.3564 14.1771 33.5256 12.797 32.3262 12.7969ZM43.2275 12.5391C42.3971 12.5391 41.4873 13.1755 41.4873 14.7051H44.8887C44.8887 13.1756 44.0316 12.5392 43.2275 12.5391ZM26.2363 8.26172L22.9277 8.99219V6.23145L26.2363 5.51367V8.26172Z" fill="#6461FC"/>
</svg>
